<svg width="226" height="119" viewBox="0 0 226 119" fill="none" xmlns="http://www.w3.org/2000/svg">
<rect width="226" height="119" fill=""/>
<g clip-path="url(#clip0_0_1)">
<rect width="226" height="119" fill=""/>
<g filter="url(#filter0_d_0_1)">
<g clip-path="url(#clip1_0_1)">
<rect y="57.4112" width="81.2435" height="80" rx="25" transform="rotate(-44.9635 0 57.4112)" fill="white"/>
<rect x="0.439911" y="56.9718" width="40" height="40" rx="20" transform="rotate(-44.9635 0.439911 56.9718)" fill="#006DAA"/>
<rect x="28.7422" y="28.7056" width="40" height="40" rx="20" transform="rotate(-44.9635 28.7422 28.7056)" fill="#95E06C"/>
<rect x="28.7061" y="85.2741" width="40" height="40" rx="20" transform="rotate(-44.9635 28.7061 85.2741)" fill="#95E06C"/>
<rect x="57.0085" y="57.0079" width="40" height="40" rx="20" transform="rotate(-44.9635 57.0085 57.0079)" fill="#006DAA"/>
</g>
</g>
<path d="M120.976 45.504C121.2 45.504 121.712 45.504 122.512 45.504C123.344 45.472 124.288 45.456 125.344 45.456C126.4 45.456 127.488 45.456 128.608 45.456C129.76 45.424 130.784 45.408 131.68 45.408C134.4 45.408 136.736 45.824 138.688 46.656C140.672 47.456 142.304 48.592 143.584 50.064C144.864 51.536 145.808 53.296 146.416 55.344C147.024 57.36 147.328 59.584 147.328 62.016C147.328 64.512 147.008 66.752 146.368 68.736C145.76 70.72 144.8 72.416 143.488 73.824C142.208 75.2 140.576 76.256 138.592 76.992C136.608 77.728 134.256 78.096 131.536 78.096C130.608 78.096 129.76 78.08 128.992 78.048C128.224 78.048 127.44 78.048 126.64 78.048C125.84 78.048 124.992 78.032 124.096 78C123.2 78 122.16 78 120.976 78V45.504ZM131.344 50.976C130.8 50.976 130.384 50.992 130.096 51.024C129.808 51.024 129.408 51.024 128.896 51.024V72.48C129.312 72.512 129.68 72.528 130 72.528C130.32 72.528 130.768 72.528 131.344 72.528C132.752 72.528 133.92 72.288 134.848 71.808C135.808 71.328 136.576 70.64 137.152 69.744C137.728 68.848 138.144 67.76 138.4 66.48C138.656 65.168 138.784 63.712 138.784 62.112C138.784 54.688 136.304 50.976 131.344 50.976Z" fill="#95E06C"/>
<path d="M160.52 45.535H167.135L178.295 76H170.78L168.53 68.665H158.675L156.335 76H148.955L160.52 45.535ZM166.865 63.175C166.565 62.305 166.25 61.405 165.92 60.475C165.62 59.515 165.32 58.585 165.02 57.685C164.75 56.785 164.495 55.945 164.255 55.165C164.015 54.355 163.805 53.68 163.625 53.14C163.445 53.71 163.235 54.4 162.995 55.21C162.755 55.99 162.485 56.83 162.185 57.73C161.915 58.63 161.615 59.545 161.285 60.475C160.985 61.405 160.685 62.305 160.385 63.175H166.865Z" fill="white"/>
<path d="M181.79 45.535C182.06 45.535 182.6 45.535 183.41 45.535C184.22 45.505 185.12 45.49 186.11 45.49C187.1 45.49 188.06 45.49 188.99 45.49C189.92 45.46 190.64 45.445 191.15 45.445C194.99 45.445 197.87 46.18 199.79 47.65C201.71 49.12 202.67 51.295 202.67 54.175C202.67 56.095 202.205 57.685 201.275 58.945C200.345 60.175 199.085 61.135 197.495 61.825C198.395 62.335 199.19 63.01 199.88 63.85C200.57 64.69 201.23 65.71 201.86 66.91C202.49 68.08 203.12 69.43 203.75 70.96C204.41 72.49 205.13 74.17 205.91 76H197.945C196.985 73.9 196.175 72.055 195.515 70.465C194.855 68.845 194.24 67.495 193.67 66.415C193.1 65.305 192.53 64.48 191.96 63.94C191.42 63.37 190.76 63.085 189.98 63.085H189.215V76H181.79V45.535ZM189.215 58.45H191.105C192.155 58.45 193.04 58.135 193.76 57.505C194.51 56.845 194.885 55.825 194.885 54.445C194.885 53.875 194.81 53.35 194.66 52.87C194.54 52.36 194.33 51.925 194.03 51.565C193.73 51.175 193.31 50.875 192.77 50.665C192.26 50.425 191.63 50.305 190.88 50.305H189.215V58.45Z" fill="#95E06C"/>
<path d="M208.79 45.535H216.215V76H208.79V45.535Z" fill="white"/>
</g>
<defs>
<filter id="filter0_d_0_1" x="-4" y="0" width="122.017" height="122.016" filterUnits="userSpaceOnUse" color-interpolation-filters="sRGB">
<feFlood flood-opacity="0" result="BackgroundImageFix"/>
<feColorMatrix in="SourceAlpha" type="matrix" values="0 0 0 0 0 0 0 0 0 0 0 0 0 0 0 0 0 0 127 0" result="hardAlpha"/>
<feOffset dy="4"/>
<feGaussianBlur stdDeviation="2"/>
<feComposite in2="hardAlpha" operator="out"/>
<feColorMatrix type="matrix" values="0 0 0 0 0 0 0 0 0 0 0 0 0 0 0 0 0 0 0.25 0"/>
<feBlend mode="normal" in2="BackgroundImageFix" result="effect1_dropShadow_0_1"/>
<feBlend mode="normal" in="SourceGraphic" in2="effect1_dropShadow_0_1" result="shape"/>
</filter>
<clipPath id="clip0_0_1">
<rect width="226" height="119" fill="white"/>
</clipPath>
<clipPath id="clip1_0_1">
<rect y="57.4112" width="81.2435" height="80" rx="25" transform="rotate(-44.9635 0 57.4112)" fill="white"/>
</clipPath>
</defs>
</svg>
